<?xml version="1.0" encoding="UTF-8" standalone="no"?>
<svg
   xmlns:dc="http://purl.org/dc/elements/1.1/"
   xmlns:cc="http://creativecommons.org/ns#"
   xmlns:rdf="http://www.w3.org/1999/02/22-rdf-syntax-ns#"
   xmlns:svg="http://www.w3.org/2000/svg"
   xmlns="http://www.w3.org/2000/svg"
   style="fill:none"
   id="svg47"
   version="1.1"
   viewBox="0 0 88 88"
   height="88"
   width="88">
  <metadata
     id="metadata51">
    <rdf:RDF>
      <cc:Work
         rdf:about="">
        <dc:format>image/svg+xml</dc:format>
        <dc:type
           rdf:resource="http://purl.org/dc/dcmitype/StillImage" />
        <dc:title></dc:title>
      </cc:Work>
    </rdf:RDF>
  </metadata>
  <g
     transform="translate(-0.97993499,-0.18896499)"
     id="g40"
     clip-path="url(#clip0)">
    <rect
       style="fill:#3586fc;fill-opacity:1"
       id="rect2"
       height="88"
       width="88"
       y="0.18896499"
       x="0.97993499" />
    <path
       style="fill:#ffffff;fill-opacity:1"
       id="path4"
       d="M 66.902,47.6136 H 51.5722 V 61.4747 H 66.902 Z" />
    <path
       style="fill:#ffffff;fill-opacity:1"
       id="path6"
       d="M 66.9649,13.1404 H 39.7935 v 13.8611 h 27.1714 z" />
    <path
       style="fill:#ffffff;fill-opacity:1"
       id="path8"
       d="M 38.3248,47.6136 H 22.9949 v 13.8611 h 15.3299 z" />
    <path
       style="fill:#94bcf7;fill-opacity:1"
       id="path10"
       d="M 50.1664,30.398 H 22.9949 v 13.8611 h 27.1715 z" />
    <path
       style="fill:#ffffff;fill-opacity:1"
       id="path12"
       d="m 26.2204,69.0128 v 4.0745 c 0,0.4619 -0.0134,0.787 -0.0402,0.9753 -0.0268,0.1858 -0.1061,0.3778 -0.2378,0.5761 -0.1318,0.1958 -0.3059,0.3452 -0.5225,0.4481 -0.2144,0.1005 -0.4678,0.1507 -0.7603,0.1507 -0.3238,0 -0.6096,-0.0603 -0.8575,-0.1808 -0.2478,-0.1205 -0.4332,-0.2774 -0.556,-0.4707 -0.1228,-0.1933 -0.1953,-0.3966 -0.2177,-0.61 -0.0223,-0.2159 -0.0335,-0.6678 -0.0335,-1.3557 v -3.6075 h 1.4101 v 4.5715 c 0,0.2661 0.0123,0.4369 0.0369,0.5122 0.0268,0.0728 0.0792,0.1092 0.1574,0.1092 0.0893,0 0.1463,-0.0402 0.1708,-0.1205 0.0268,-0.0829 0.0402,-0.2762 0.0402,-0.5799 v -4.4925 z" />
    <path
       style="fill:#ffffff;fill-opacity:1"
       id="path14"
       d="m 28.7432,69.0128 h 1.4201 c 0.3841,0 0.6788,0.0339 0.8842,0.1017 0.2077,0.0678 0.3629,0.1657 0.4656,0.2937 0.105,0.1281 0.1753,0.2837 0.211,0.467 0.038,0.1807 0.057,0.4619 0.057,0.8435 v 0.5309 c 0,0.3892 -0.0358,0.6728 -0.1072,0.8511 -0.0715,0.1782 -0.2032,0.315 -0.3952,0.4104 -0.1898,0.0954 -0.4388,0.1431 -0.747,0.1431 h -0.3784 v 2.4552 h -1.4101 z m 1.4101,1.0431 v 1.5515 c 0.0402,0.0025 0.0748,0.0038 0.1038,0.0038 0.1295,0 0.2188,-0.0352 0.2679,-0.1054 0.0514,-0.0728 0.0771,-0.2222 0.0771,-0.4482 v -0.5008 c 0,-0.2084 -0.0291,-0.3439 -0.0871,-0.4067 -0.0581,-0.0628 -0.1787,-0.0941 -0.3617,-0.0941 z" />
    <path
       style="fill:#ffffff;fill-opacity:1"
       id="path16"
       d="m 34.1631,69.0128 h 0.9981 c 0.6655,0 1.1154,0.0289 1.3499,0.0866 0.2366,0.0578 0.4287,0.2059 0.576,0.4444 0.1497,0.236 0.2245,0.6138 0.2245,1.1334 0,0.4745 -0.0525,0.7934 -0.1575,0.9565 -0.1049,0.1632 -0.3115,0.2611 -0.6196,0.2938 0.2791,0.0778 0.4667,0.182 0.5627,0.3125 0.096,0.1305 0.1552,0.251 0.1775,0.3615 0.0246,0.108 0.0369,0.4079 0.0369,0.9 v 1.6079 h -1.3097 v -2.0259 c 0,-0.3264 -0.0234,-0.5284 -0.0703,-0.6063 -0.0446,-0.0778 -0.1641,-0.1167 -0.3584,-0.1167 v 2.7489 h -1.4101 z m 1.4101,1.0431 v 1.3557 c 0.1586,0 0.2691,-0.0239 0.3316,-0.0716 0.0648,-0.0502 0.0971,-0.2096 0.0971,-0.4782 v -0.3352 c 0,-0.1933 -0.0312,-0.3201 -0.0937,-0.3803 -0.0603,-0.0603 -0.172,-0.0904 -0.335,-0.0904 z" />
    <path
       style="fill:#ffffff;fill-opacity:1"
       id="path18"
       d="m 39.5161,75.1094 0.7252,-6.0799 h 0.9482 l -0.2603,6.0799 z" />
    <path
       style="fill:#ffffff;fill-opacity:1"
       id="path20"
       d="m 43.08,75.1095 -0.7251,-6.08 h -0.9483 l 0.2603,6.08 z" />
    <path
       style="fill:#ffffff;fill-opacity:1"
       id="path22"
       d="m 53.4417,75.1094 0.7251,-6.0799 h 0.9483 l -0.2603,6.0799 z" />
    <path
       style="fill:#ffffff;fill-opacity:1"
       id="path24"
       d="m 57.0056,75.1094 -0.7251,-6.0799 h -0.9483 l 0.2603,6.0799 z" />
    <path
       style="fill:#ffffff;fill-opacity:1"
       id="path26"
       d="m 63.3974,75.1094 0.7252,-6.0799 h 0.9482 l -0.2603,6.0799 z" />
    <path
       style="fill:#ffffff;fill-opacity:1"
       id="path28"
       d="m 66.9613,75.1094 -0.7251,-6.0799 h -0.9483 l 0.2603,6.0799 z" />
    <path
       style="fill:#ffffff;fill-opacity:1"
       id="path30"
       d="M 47.9949,69.0128 H 49.05 c 0.681,0 1.141,0.0352 1.3799,0.1055 0.2412,0.0703 0.4243,0.1857 0.5493,0.3464 0.1251,0.1607 0.2032,0.3402 0.2345,0.5385 0.0313,0.1958 0.0469,0.5824 0.0469,1.1598 v 2.1352 c 0,0.5472 -0.0235,0.9138 -0.0704,1.0995 -0.0446,0.1833 -0.1239,0.3276 -0.2378,0.4331 -0.1138,0.1029 -0.2545,0.1757 -0.422,0.2184 -0.1675,0.0402 -0.4198,0.0602 -0.7569,0.0602 h -1.7786 z m 1.4101,1.0431 v 4.0104 c 0.2032,0 0.3283,-0.0451 0.3752,-0.1355 0.0468,-0.0929 0.0703,-0.3427 0.0703,-0.7494 v -2.3686 c 0,-0.2761 -0.0078,-0.4531 -0.0235,-0.5309 C 49.8114,70.204 49.7757,70.1476 49.7199,70.1124 49.664,70.0748 49.5591,70.0559 49.405,70.0559 Z" />
    <path
       style="fill:#ffffff;fill-opacity:1"
       id="path32"
       d="m 61.6886,69.0128 v 1.2201 h -0.8374 v 4.8765 h -1.4101 v -4.8765 h -0.834 v -1.2201 z" />
    <circle
       style="fill:#ffffff;fill-opacity:1"
       id="circle34"
       r="0.5"
       cy="72.061096"
       cx="45.482201" />
    <rect
       style="fill:#ffffff;fill-opacity:1"
       id="rect36"
       height="1.84389"
       width="1"
       y="69.012802"
       x="44.982201" />
    <rect
       style="fill:#ffffff;fill-opacity:1"
       id="rect38"
       height="1.84389"
       width="1"
       y="73.3936"
       x="44.982201" />
  </g>
  <defs
     id="defs45">
    <clipPath
       id="clip0">
      <rect
         style="fill:#ffffff"
         y="0"
         x="0"
         id="rect42"
         transform="translate(0.979935,0.188965)"
         height="88"
         width="88" />
    </clipPath>
  </defs>
</svg>
